Coordinates
version=1
nRows=33
nColumns=30
inDegrees=yes

Units are S.I. units (second, meters, Newtons, ...)
Angles are in degrees.

endheader
time	floatyaw	floatroll	floatpitch	floatx	floaty	floatz	pro_sup_l	deviation_l	flexion_l	cmc_flexion_l	cmc_abduction_l	mp_flexion_l	ip_flexion_l	2mcp_flexion_l	2mcp_abduction_l	2pm_flexion_l	2md_flexion_l	3mcp_flexion_l	3mcp_abduction_l	3pm_flexion_l	3md_flexion_l	4mcp_flexion_l	4mcp_abduction_l	4pm_flexion_l	4md_flexion_l	5mcp_flexion_l	5mcp_abduction_l	5pm_flexion_l	5md_flexion_l
-0.995000	-0.883807	-4.225655	94.239928	-0.007811	-0.268867	0.000295	89.665775	-0.866372	-2.433561	26.276965	3.327091	-18.450992	-33.311720	19.633365	5.486451	32.629374	20.667659	9.067505	4.029536	35.666167	21.688825	-0.718052	-3.191317	52.458617	33.286670	-19.859096	-9.487827	59.864348	49.260471
-0.985000	-0.883807	-4.225655	94.239928	-0.007817	-0.268831	0.000273	89.665768	-0.859789	-2.412349	26.284812	3.291069	-18.461343	-33.268440	19.626411	5.474292	32.612929	20.672651	9.051357	4.034419	35.658256	21.700839	-0.738191	-3.197003	52.467781	33.303843	-19.859489	-9.478441	59.850342	49.249384
-0.975000	-0.883807	-4.225655	94.239928	-0.007817	-0.268782	0.000241	89.671467	-0.850826	-2.390095	26.283580	3.259775	-18.464659	-33.223087	19.617765	5.466117	32.610263	20.667691	9.043693	4.041941	35.654929	21.696416	-0.745435	-3.200811	52.480776	33.307082	-19.861500	-9.475802	59.846845	49.237446
-0.965000	-0.883807	-4.225655	94.239928	-0.007809	-0.268727	0.000204	89.683574	-0.840257	-2.370546	26.275971	3.237737	-18.462056	-33.188815	19.607806	5.463186	32.620320	20.662233	9.045553	4.051519	35.656322	21.683826	-0.740447	-3.204304	52.497800	33.299492	-19.870748	-9.480442	59.862846	49.221139
-0.955000	-0.883807	-4.225655	94.239928	-0.007792	-0.268678	0.000168	89.698186	-0.830220	-2.357090	26.261694	3.234558	-18.455196	-33.167410	19.597490	5.466389	32.639758	20.668926	9.056140	4.061289	35.661474	21.677087	-0.728477	-3.209414	52.519903	33.289524	-19.891118	-9.491063	59.903046	49.199433
-0.945000	-0.883807	-4.225655	94.239928	-0.007767	-0.268643	0.000136	89.709284	-0.823555	-2.351442	26.238015	3.258989	-18.446145	-33.149685	19.586943	5.476236	32.665891	20.695458	9.073842	4.068925	35.668288	21.685794	-0.715924	-3.217002	52.546799	33.285058	-19.921929	-9.504274	59.963870	49.174963
-0.935000	-0.883807	-4.225655	94.239928	-0.007739	-0.268626	0.000112	89.713133	-0.822124	-2.352883	26.203335	3.310866	-18.436935	-33.123533	19.573951	5.492690	32.699215	20.739459	9.095937	4.072772	35.674976	21.708592	-0.707641	-3.226216	52.576704	33.288075	-19.958732	-9.515838	60.035207	49.152093
-0.925000	-0.883807	-4.225655	94.239928	-0.007711	-0.268623	0.000095	89.710831	-0.825391	-2.358473	26.160352	3.377802	-18.429030	-33.083246	19.554100	5.514650	32.743081	20.789593	9.117566	4.072486	35.681797	21.734453	-0.706376	-3.234946	52.607968	33.293580	-19.997099	-9.522829	60.106039	49.133287
-0.915000	-0.883807	-4.225655	94.239928	-0.007690	-0.268627	0.000085	89.707024	-0.830446	-2.364282	26.115865	3.439984	-18.423021	-33.033199	19.523337	5.539387	32.800075	20.831651	9.131865	4.068873	35.691201	21.750157	-0.713477	-3.240907	52.640445	33.293446	-20.035693	-9.525189	60.169000	49.116570
-0.905000	-0.883807	-4.225655	94.239928	-0.007677	-0.268632	0.000078	89.706441	-0.833483	-2.367326	26.077639	3.480153	-18.418837	-32.984204	19.481961	5.562736	32.867259	20.855517	9.132846	4.063265	35.705533	21.748327	-0.728625	-3.242608	52.674737	33.282336	-20.074905	-9.525531	60.220606	49.096391
-0.895000	-0.883807	-4.225655	94.239928	-0.007672	-0.268635	0.000071	89.711518	-0.831712	-2.367364	26.051419	3.491961	-18.416371	-32.946769	19.437480	5.580475	32.933840	20.858925	9.120024	4.056997	35.723753	21.730805	-0.747939	-3.239802	52.709660	33.261404	-20.111635	-9.527286	60.258516	49.067643
-0.885000	-0.883807	-4.225655	94.239928	-0.007674	-0.268635	0.000063	89.722638	-0.824486	-2.367186	26.040127	3.481216	-18.415788	-32.926837	19.403365	5.590287	32.983915	20.846637	9.100975	4.051176	35.740097	21.706124	-0.762840	-3.233344	52.740538	33.237200	-20.135554	-9.532428	60.279828	49.029791
-0.875000	-0.883807	-4.225655	94.239928	-0.007679	-0.268633	0.000055	89.739634	-0.813217	-2.370715	26.044232	3.459953	-18.416642	-32.925593	19.393032	5.592862	33.003504	20.826551	9.088471	4.046573	35.746490	21.683901	-0.762636	-3.224680	52.760599	33.216768	-20.132105	-9.540200	60.282415	48.987901
-0.865000	-0.883807	-4.225655	94.239928	-0.007685	-0.268627	0.000047	89.761958	-0.800538	-2.380004	26.061185	3.438744	-18.416348	-32.940680	19.412549	5.591118	32.987349	20.805586	9.093201	4.043398	35.737173	21.670176	-0.740492	-3.215237	52.764810	33.202805	-20.091890	-9.547577	60.267365	48.950233
-0.855000	-0.883807	-4.225655	94.239928	-0.007690	-0.268617	0.000040	89.786688	-0.789533	-2.393368	26.083971	3.423261	-18.410150	-32.966233	19.457302	5.587866	32.940707	20.787538	9.117168	4.041101	35.711899	21.665971	-0.698789	-3.205960	52.753113	33.192474	-20.020222	-9.551097	60.239360	48.924651
-0.845000	-0.883807	-4.225655	94.239928	-0.007696	-0.268602	0.000035	89.806483	-0.783311	-2.406074	26.101243	3.416106	-18.393926	-32.992517	19.514880	5.583541	32.875354	20.773340	9.152334	4.038578	35.675487	21.668769	-0.649906	-3.197142	52.730769	33.180480	-19.939652	-9.548904	60.204275	48.916022
-0.835000	-0.883807	-4.225655	94.239928	-0.007706	-0.268587	0.000034	89.810817	-0.784554	-2.413105	26.101018	3.419649	-18.368198	-33.007735	19.571497	5.575721	32.803541	20.762659	9.185010	4.034879	35.634735	21.675111	-0.611645	-3.188625	52.706052	33.163726	-19.882350	-9.541752	60.166033	48.925140
-0.825000	-0.883807	-4.225655	94.239928	-0.007722	-0.268581	0.000042	89.791495	-0.794604	-2.412113	26.076844	3.435600	-18.339758	-33.002638	19.617388	5.560922	32.734348	20.755245	9.202883	4.029966	35.595515	21.682576	-0.599625	-3.180323	52.687073	33.144099	-19.875246	-9.532433	60.124911	48.948987
-0.815000	-0.883807	-4.225655	94.239928	-0.007746	-0.268591	0.000063	89.749149	-0.812438	-2.404794	26.032727	3.461782	-18.318999	-32.975473	19.648593	5.537585	32.673821	20.751149	9.200625	4.024935	35.561959	21.690363	-0.620421	-3.172760	52.679218	33.127635	-19.925858	-9.524079	60.077916	48.982365
-0.805000	-0.883807	-4.225655	94.239928	-0.007773	-0.268622	0.000099	89.695333	-0.834485	-2.395942	25.983222	3.490320	-18.314551	-32.933913	19.665503	5.508273	32.627038	20.750142	9.181367	4.021516	35.537465	21.698781	-0.668799	-3.167239	52.683871	33.120920	-20.017630	-9.518443	60.020817	49.020530
-0.795000	-0.883807	-4.225655	94.239928	-0.007800	-0.268670	0.000145	89.647608	-0.855807	-2.390966	25.947964	3.510436	-18.328942	-32.892630	19.670321	5.479584	32.599321	20.751252	9.153824	4.021307	35.525899	21.708473	-0.730165	-3.165349	52.698450	33.127077	-20.118336	-9.515292	59.951234	49.061592
-0.785000	-0.883807	-4.225655	94.239928	-0.007819	-0.268725	0.000191	89.620449	-0.872022	-2.393582	25.943437	3.514769	-18.358056	-32.867758	19.665645	5.459774	32.595171	20.752901	9.127474	4.025302	35.531450	21.719850	-0.786281	-3.168059	52.717429	33.143735	-20.196204	-9.513258	59.871487	49.107258
-0.775000	-0.883807	-4.225655	94.239928	-0.007826	-0.268779	0.000227	89.618130	-0.880779	-2.405093	25.976362	3.504837	-18.394380	-32.871009	19.655077	5.455379	32.615433	20.753390	9.108964	4.033872	35.556844	21.732768	-0.820990	-3.175038	52.733760	33.164229	-20.233300	-9.511417	59.789153	49.161427
-0.765000	-0.883807	-4.225655	94.239928	-0.007819	-0.268826	0.000243	89.633956	-0.882073	-2.425012	26.041628	3.491412	-18.431481	-32.905833	19.644575	5.468518	32.654616	20.751331	9.101101	4.046939	35.600967	21.746479	-0.824142	-3.184768	52.740350	33.181419	-20.229071	-9.510299	59.714186	49.227106
-0.755000	-0.883807	-4.225655	94.239928	-0.007801	-0.268866	0.000236	89.655360	-0.877643	-2.451615	26.124602	3.488948	-18.466474	-32.966486	19.642201	5.495990	32.700512	20.745874	9.103432	4.063980	35.657569	21.759930	-0.793967	-3.195441	52.731676	33.191792	-20.195163	-9.511421	59.653909	49.302958
-0.745000	-0.883807	-4.225655	94.239928	-0.007777	-0.268901	0.000214	89.670781	-0.870139	-2.481613	26.205678	3.507239	-18.498935	-33.039462	19.655312	5.530410	32.736954	20.736625	9.113035	4.083847	35.716019	21.772162	-0.737995	-3.205936	52.705318	33.197099	-20.147555	-9.515609	59.608988	49.381561
-0.735000	-0.883807	-4.225655	94.239928	-0.007754	-0.268931	0.000188	89.674232	-0.862410	-2.509707	26.265240	3.545504	-18.527636	-33.106481	19.686847	5.562860	32.748847	20.723403	9.125341	4.104588	35.763985	21.782405	-0.671244	-3.216181	52.662700	33.202477	-20.100629	-9.521351	59.572848	49.451200
-0.725000	-0.883807	-4.225655	94.239928	-0.007739	-0.268952	0.000171	89.666096	-0.856851	-2.529334	26.288444	3.592367	-18.548216	-33.148865	19.733205	5.586033	32.727614	20.706359	9.135304	4.123535	35.791286	21.790096	-0.610988	-3.226703	52.608573	33.212553	-20.064014	-9.524633	59.534956	49.501041
-0.715000	-0.883807	-4.225655	94.239928	-0.007736	-0.268960	0.000169	89.651217	-0.854696	-2.534901	26.269599	3.631347	-18.554177	-33.153162	19.784942	5.596673	32.675005	20.686845	9.138614	4.137753	35.793723	21.795376	-0.570035	-3.237758	52.549656	33.228348	-20.041273	-9.520679	59.486312	49.526926
-0.705000	-0.883807	-4.225655	94.239928	-0.007744	-0.268950	0.000182	89.636134	-0.855562	-2.524380	26.215023	3.648535	-18.541026	-33.116739	19.830061	5.596331	32.603244	20.668255	9.132645	4.144813	35.775066	21.799711	-0.552126	-3.248646	52.493060	33.246906	-20.029852	-9.506549	59.424266	49.534098
-0.695000	-0.883807	-4.225655	94.239928	-0.007757	-0.268920	0.000202	89.626666	-0.857743	-2.500723	26.142427	3.638612	-18.510928	-33.050641	19.858683	5.590108	32.530628	20.655283	9.117341	4.143558	35.745467	21.805360	-0.551942	-3.257652	52.444775	33.263414	-20.022397	-9.482865	59.354127	49.534596
-0.685000	-0.883807	-4.225655	94.239928	-0.007771	-0.268878	0.000222	89.626248	-0.859240	-2.471059	26.075574	3.606696	-18.474249	-32.976987	19.867177	5.583928	32.474124	20.651289	9.096039	4.134450	35.716531	21.813270	-0.559486	-3.262714	52.408692	33.273931	-20.009693	-9.453600	59.287301	49.540215
-0.675000	-0.883807	-4.225655	94.239928	-0.007779	-0.268832	0.000238	89.635106	-0.858886	-2.443830	26.035444	3.565622	-18.445997	-32.920666	19.859493	5.581616	32.442801	20.655723	9.075348	4.119302	35.695745	21.820997	-0.566183	-3.262466	52.386688	33.276909	-19.985038	-9.424248	59.238049	49.554797
